<svg xmlns="http://www.w3.org/2000/svg" width="32" height="32"><path style="text-indent:0;text-align:start;line-height:normal;text-transform:none;block-progression:tb;marker:none;-inkscape-font-specification:Sans" d="M17.313 1.969a10.193 10.193 0 0 0-9.532 8.5c-.01.057-.053.099-.062.156L4.125 17.75a.5.5 0 0 0 .438.719H6v5.062a.5.5 0 0 0 .5.5h4l.625 5.563a.5.5 0 1 0 .969-.125l-.656-6a.5.5 0 0 0-.5-.438H7V17.97a.5.5 0 0 0-.5-.5H5.375l3.313-6.532a.5.5 0 0 0 .03-.156 9.19 9.19 0 0 1 10.5-7.719c5.04.765 8.481 5.386 7.75 10.407l-4.405 9.625a.5.5 0 0 0-.032.25l.563 6.5a.5.5 0 1 0 .968-.063l-.562-6.375 4.406-9.593a.5.5 0 0 0 .032-.126 10.194 10.194 0 0 0-8.563-11.624 10.388 10.388 0 0 0-2.063-.094zm-.032 3a.5.5 0 0 0-.343.5v.781a5.022 5.022 0 0 0-.782.313L15.625 6a.5.5 0 0 0-.719 0L13.47 7.406a.5.5 0 0 0 0 .719l.562.563a4.815 4.815 0 0 0-.312.75h-.781a.5.5 0 0 0-.5.53v1.97a.5.5 0 0 0 .5.5h.78c.085.266.186.532.313.78l-.562.563a.5.5 0 0 0 0 .719l1.437 1.406a.5.5 0 0 0 .719 0l.531-.562c.25.128.514.227.782.312v.813a.5.5 0 0 0 .5.468h2a.5.5 0 0 0 .468-.468v-.813c.268-.084.532-.184.782-.312l.562.562a.5.5 0 0 0 .719 0l1.406-1.406a.5.5 0 0 0 0-.719l-.531-.562a5.03 5.03 0 0 0 .312-.781h.782a.5.5 0 0 0 .5-.5v-1.97a.5.5 0 0 0-.5-.53h-.813c-.083-.263-.156-.505-.281-.75l.531-.563a.5.5 0 0 0 0-.719L21.969 6a.5.5 0 0 0-.719 0l-.563.563a5.025 5.025 0 0 0-.78-.313v-.781a.5.5 0 0 0-.47-.5h-2a.5.5 0 0 0-.093 0 .5.5 0 0 0-.063 0zm.657.968h1v.625a.5.5 0 0 0 .375.5c.436.1.87.262 1.25.5a.5.5 0 0 0 .625-.062l.437-.438.688.72-.407.437a.5.5 0 0 0-.093.625c.237.38.401.781.5 1.219a.5.5 0 0 0 .5.406h.625v.969h-.625a.5.5 0 0 0-.5.406c-.1.437-.262.839-.5 1.219a.5.5 0 0 0 .093.624l.407.438-.688.719-.438-.438a.5.5 0 0 0-.625-.062c-.38.237-.812.401-1.25.5a.5.5 0 0 0-.375.5v.625h-1v-.625a.5.5 0 0 0-.406-.5c-.437-.1-.839-.262-1.218-.5a.5.5 0 0 0-.625.062l-.438.438-.719-.719.438-.406a.5.5 0 0 0 .062-.625 4.052 4.052 0 0 1-.5-1.25.5.5 0 0 0-.469-.406h-.624v-.97h.624a.5.5 0 0 0 .47-.405c.099-.437.261-.84.5-1.22a.5.5 0 0 0-.063-.624l-.438-.438.719-.718.438.437a.5.5 0 0 0 .624.063 3.88 3.88 0 0 1 1.22-.5.5.5 0 0 0 .405-.5v-.625zm.5 2.907a2.14 2.14 0 0 0-2.125 2.125c0 1.162.962 2.094 2.125 2.094a2.086 2.086 0 0 0 2.093-2.094c0-1.163-.931-2.125-2.093-2.125zm0 1c.621 0 1.125.503 1.125 1.125s-.504 1.094-1.125 1.094c-.622 0-1.125-.472-1.125-1.094 0-.622.503-1.125 1.125-1.125z" color="#000" enable-background="accumulate" font-family="Sans" font-weight="400" overflow="visible"/></svg>