<svg xmlns="http://www.w3.org/2000/svg" data-name="Layer 1" viewBox="0 0 512 512"><path d="M100.5 147.5h183a7.5 7.5 0 0 0 0-15h-183a7.5 7.5 0 0 0 0 15ZM471 257.81V37.5A37.54 37.54 0 0 0 433.5 0h-213A37.54 37.54 0 0 0 183 37.5v14.76h-37.5a37.54 37.54 0 0 0-37.5 37.5v7.5H85.5a37.54 37.54 0 0 0-37.5 37.5v61.52a37.55 37.55 0 0 0-33 37.22v241A37.54 37.54 0 0 0 52.5 512h407a37.54 37.54 0 0 0 37.5-37.5v-181a37.56 37.56 0 0 0-26-35.69ZM198 37.5A22.52 22.52 0 0 1 220.5 15h213A22.52 22.52 0 0 1 456 37.5V256h-60V89.76a37.54 37.54 0 0 0-37.5-37.5H198Zm-75 52.26a22.52 22.52 0 0 1 22.5-22.5h213a22.52 22.52 0 0 1 22.5 22.5V256h-45V134.76a37.54 37.54 0 0 0-37.5-37.5H123Zm-60 45a22.52 22.52 0 0 1 22.5-22.5h213a22.52 22.52 0 0 1 22.5 22.5V256h-34.31a22.61 22.61 0 0 1-16.11-6.79l-40.88-41.9A37.72 37.72 0 0 0 202.86 196H63ZM482 474.5a22.52 22.52 0 0 1-22.5 22.5h-407A22.52 22.52 0 0 1 30 474.5v-241A22.52 22.52 0 0 1 52.5 211h150.36a22.61 22.61 0 0 1 16.1 6.79l40.89 41.9A37.69 37.69 0 0 0 286.69 271H459.5a22.52 22.52 0 0 1 22.5 22.5ZM322 332.11h-18.29v-7.73a20.25 20.25 0 0 0-20.23-20.23h-55a20.25 20.25 0 0 0-20.23 20.23v7.73H190a19 19 0 0 0-19 19v93.7a19 19 0 0 0 19 19h132a19 19 0 0 0 19-19v-93.7a19 19 0 0 0-19-19Zm-98.7-7.73a5.23 5.23 0 0 1 5.23-5.23h55a5.23 5.23 0 0 1 5.23 5.23v7.73h-65.47ZM326 444.83a4 4 0 0 1-4 4H190a4 4 0 0 1-4-4v-58.07l46.83 23.37v9.64a14.52 14.52 0 0 0 14.5 14.5h17.36a14.52 14.52 0 0 0 14.5-14.5v-9.64L326 386.76Zm-78.19-25.56v-16.35h16.36v16.35ZM326 370l-49.18 24.54a14.49 14.49 0 0 0-12.15-6.62h-17.35a14.49 14.49 0 0 0-12.15 6.62L186 370v-18.87a4 4 0 0 1 4-4h132a4 4 0 0 1 4 4Zm-35-200a7.5 7.5 0 0 0-7.5-7.5h-183a7.5 7.5 0 0 0 0 15h183a7.5 7.5 0 0 0 7.5-7.5Z"/></svg>